<?xml version="1.0" encoding="UTF-8" standalone="no"?>
<svg width="16px" height="16px" viewBox="0 0 16 16" version="1.1" xmlns="http://www.w3.org/2000/svg" xmlns:xlink="http://www.w3.org/1999/xlink">
    <!-- Generator: Sketch 43 (38999) - http://www.bohemiancoding.com/sketch -->
    <title>cuo</title>
    <desc>Created with Sketch.</desc>
    <defs>
        <path d="M102,16 C93.163444,16 86,8.836556 86,0 L100.00594,0 C101.107229,0 102,0.894513756 102,1.99406028 L102,16 Z M96.7135281,6 L98.8538015,3.85972665 C99.0461965,3.66733163 99.0511478,3.34292291 98.8541124,3.14588756 C98.6628395,2.95461465 98.3374804,2.94899145 98.1402734,3.14619854 L96,5.28647189 L93.8597266,3.14619854 C93.6673316,2.95380352 93.3429229,2.94885222 93.1458876,3.14588756 C92.9546146,3.33716048 92.9489914,3.66251956 93.1461985,3.85972665 L95.2864719,6 L93.1461985,8.14027335 C92.9538035,8.33266837 92.9488522,8.65707709 93.1458876,8.85411244 C93.3371605,9.04538535 93.6625196,9.05100855 93.8597266,8.85380146 L96,6.71352811 L98.1402734,8.85380146 C98.3326684,9.04619648 98.6570771,9.05114778 98.8541124,8.85411244 C99.0453854,8.66283952 99.0510086,8.33748044 98.8538015,8.14027335 L96.7135281,6 Z" id="path-1"></path>
    </defs>
    <g id="Page-1" stroke="none" stroke-width="1" fill="none" fill-rule="evenodd">
        <g id="B02_系统管理_商户用户管理" transform="translate(-408.000000, -67.000000)">
            <g id="Group-2-Copy" transform="translate(322.000000, 67.000000)">
                <mask id="mask-2" fill="white">
                    <use xlink:href="#path-1"></use>
                </mask>
                <use id="cuo" fill="#DFE4E4" xlink:href="#path-1"></use>
            </g>
        </g>
    </g>
</svg>